<?xml version="1.0" encoding="UTF-8" standalone="no"?>
<!-- Created with Inkscape (http://www.inkscape.org/) -->
<svg
   xmlns:dc="http://purl.org/dc/elements/1.1/"
   xmlns:cc="http://web.resource.org/cc/"
   xmlns:rdf="http://www.w3.org/1999/02/22-rdf-syntax-ns#"
   xmlns:svg="http://www.w3.org/2000/svg"
   xmlns="http://www.w3.org/2000/svg"
   xmlns:sodipodi="http://sodipodi.sourceforge.net/DTD/sodipodi-0.dtd"
   xmlns:inkscape="http://www.inkscape.org/namespaces/inkscape"
   width="730.1925"
   height="179.72368"
   id="svg127772"
   sodipodi:version="0.32"
   inkscape:version="0.44"
   version="1.0"
   sodipodi:docbase="C:\Dokumente und Einstellungen\Andreas\Eigene Dateien\Eigene Bilder\sonstiges\Logos\Vektor"
   sodipodi:docname="Bluetooth-Logo.svg">
  <defs
     id="defs127774"><clipPath
   clip-rule="nonzero"
   id="clp100">
<path
   id="path2151"
   d="M 459.38,562.76 L 575.05,562.76 L 575.05,584.53 L 459.38,584.53 L 459.38,562.76 z " />

</clipPath>
<clipPath
   clip-rule="nonzero"
   id="clp94">
<path
   id="path2062"
   d="M 135.58,594.63 L 256.14,594.63 L 256.14,575.3 L 135.58,575.3 L 135.58,594.63 z " />

</clipPath>
<clipPath
   clip-rule="nonzero"
   id="clp95">
<path
   id="path2071"
   d="M 135.58,594.63 L 256.14,594.63 L 256.14,575.3 L 135.58,575.3 L 135.58,594.63 z " />

</clipPath>
<clipPath
   clip-rule="nonzero"
   id="clp96">
<path
   id="path2080"
   d="M 135.58,594.63 L 256.14,594.63 L 256.14,575.3 L 135.58,575.3 L 135.58,594.63 z " />

</clipPath>
<clipPath
   clip-rule="nonzero"
   id="clp97">
<path
   id="path2089"
   d="M 135.58,594.63 L 256.14,594.63 L 256.14,575.3 L 135.58,575.3 L 135.58,594.63 z " />

</clipPath>
<clipPath
   clip-rule="nonzero"
   id="clp98">
<path
   id="path2118"
   d="M 51.579,572.26 L 132.64,572.26 L 132.64,595.49 L 51.579,595.49 L 51.579,572.26 z " />

</clipPath>
<clipPath
   clip-rule="nonzero"
   id="clp99">
<path
   id="path2138"
   d="M 51.579,572.26 L 132.64,572.26 L 132.64,595.49 L 51.579,595.49 L 51.579,572.26 z " />

</clipPath>
<clipPath
   clip-rule="nonzero"
   id="clp756">
<path
   id="path7294"
   d="M 1003.5,455.64 L 1035.6,455.64 L 1035.6,443.04 L 1003.5,443.04 L 1003.5,455.64 z " />

</clipPath>
<clipPath
   clip-rule="nonzero"
   id="clp757">
<path
   id="path7303"
   d="M 1003.5,455.64 L 1035.6,455.64 L 1035.6,443.04 L 1003.5,443.04 L 1003.5,455.64 z " />

</clipPath>
<clipPath
   clip-rule="nonzero"
   id="clp758">
<path
   id="path7318"
   d="M 1003.5,455.64 L 1035.6,455.64 L 1035.6,443.04 L 1003.5,443.04 L 1003.5,455.64 z " />

</clipPath>
<clipPath
   clip-rule="nonzero"
   id="clp754">
<path
   id="path7265"
   d="M 723.1,447.07 L 809.8,447.07 L 809.8,424.05 L 723.1,424.05 L 723.1,447.07 z " />

</clipPath>
<clipPath
   clip-rule="nonzero"
   id="clp755">
<path
   id="path7274"
   d="M 723.1,447.07 L 809.8,447.07 L 809.8,424.05 L 723.1,424.05 L 723.1,447.07 z " />

</clipPath>
<clipPath
   clip-rule="nonzero"
   id="clp766">
<path
   id="path7617"
   d="M 353.2,269.72 L 381.55,269.72 L 381.55,259.96 L 353.2,259.96 L 353.2,269.72 z " />

</clipPath>
<clipPath
   clip-rule="nonzero"
   id="clp767">
<path
   id="path7626"
   d="M 353.2,269.72 L 381.55,269.72 L 381.55,259.96 L 353.2,259.96 L 353.2,269.72 z " />

</clipPath>
<clipPath
   clip-rule="nonzero"
   id="clp768">
<path
   id="path7694"
   d="M 884.27,1291.1 L 1053.9,1291.1 L 1053.9,1266.6 L 884.27,1266.6 L 884.27,1291.1 z " />

</clipPath>
<clipPath
   clip-rule="nonzero"
   id="clp769">
<path
   id="path7724"
   d="M 884.27,1291.1 L 1053.9,1291.1 L 1053.9,1266.6 L 884.27,1266.6 L 884.27,1291.1 z " />

</clipPath>

<clipPath
   id="clipPath129144"
   clip-rule="nonzero">
<path
   d="M 1003.5,455.64 L 1035.6,455.64 L 1035.6,443.04 L 1003.5,443.04 L 1003.5,455.64 z "
   id="path129146" />

</clipPath>



<clipPath
   id="clipPath129151"
   clip-rule="nonzero">
<path
   d="M 1003.5,455.64 L 1035.6,455.64 L 1035.6,443.04 L 1003.5,443.04 L 1003.5,455.64 z "
   id="path129153" />

</clipPath>



<clipPath
   id="clipPath129161"
   clip-rule="nonzero">
<path
   d="M 1003.5,455.64 L 1035.6,455.64 L 1035.6,443.04 L 1003.5,443.04 L 1003.5,455.64 z "
   id="path129163" />

</clipPath>








</defs>
  <sodipodi:namedview
     id="base"
     pagecolor="#ffffff"
     bordercolor="#666666"
     borderopacity="1.0"
     inkscape:pageopacity="0.0"
     inkscape:pageshadow="2"
     inkscape:zoom="0.82148629"
     inkscape:cx="404.10686"
     inkscape:cy="154.9134"
     inkscape:document-units="px"
     inkscape:current-layer="layer1"
     inkscape:window-width="1051"
     inkscape:window-height="691"
     inkscape:window-x="34"
     inkscape:window-y="83" />
  <metadata
     id="metadata127777">
    <rdf:RDF>
      <cc:Work
         rdf:about="">
        <dc:format>image/svg+xml</dc:format>
        <dc:type
           rdf:resource="http://purl.org/dc/dcmitype/StillImage" />
      </cc:Work>
    </rdf:RDF>
  </metadata>
  <g
     inkscape:label="Ebene 1"
     inkscape:groupmode="layer"
     id="layer1"
     transform="translate(-3241.044,-1183.659)">
    <g
       id="g131233">
      <path
         style="font-size:3.15269995px;letter-spacing:-0.063054;word-spacing:0;fill:#000000;fill-rule:nonzero;stroke:none;stroke-width:0.091;stroke-linecap:butt;stroke-linejoin:miter;stroke-miterlimit:4;stroke-dasharray:none;font-family:fnt0, &quot;Futura&quot;, Arial"
         d="M 3241.4781,1275.0729 C 3241.4781,1275.0729 3236.0327,1183.9839 3305.3454,1183.9839 C 3381.1469,1183.9839 3371.4111,1278.2137 3371.4111,1278.2137 C 3371.4111,1278.2137 3378.9486,1365.115 3302.0984,1363.0212 C 3236.0327,1361.9743 3241.4781,1275.0729 3241.4781,1275.0729"
         class="ps084"
         id="path1929" />
      <path
         style="font-size:3.15269995px;letter-spacing:-0.063054;word-spacing:0;fill:white;fill-rule:nonzero;stroke:none;stroke-width:0.091;stroke-linecap:butt;stroke-linejoin:miter;stroke-miterlimit:4;stroke-dasharray:none;font-family:fnt0, &quot;Futura&quot;, Arial"
         d="M 3346.4923,1304.3884 L 3315.6056,1272.9791 L 3345.968,1242.6149 L 3299.9,1196.547 L 3299.9,1257.2735 L 3274.4587,1232.1457 L 3265.2454,1241.568 L 3297.1773,1274.026 L 3265.2454,1305.4353 L 3274.9812,1314.8576 L 3299.9,1290.7767 L 3299.9,1351.5033 L 3346.4923,1304.3884 z M 3312.8829,1227.958 L 3328.0641,1242.6149 L 3312.8829,1257.2735 L 3312.8829,1227.958 z M 3327.5415,1304.3884 L 3313.5117,1320.094 L 3312.8829,1289.7298 L 3327.5415,1304.3884"
         class="ps02 ps136 ps20"
         id="path1941" />
      <g
         id="g131221">
        <path
           id="path1943"
           class="ps010 ps136 ps20"
           d="M 3400.8311,1204.9241 L 3439.5706,1204.9241 C 3455.1699,1204.9241 3465.7454,1213.2994 3465.7454,1237.3803 C 3465.7454,1250.992 3461.7667,1259.3674 3454.6473,1265.6489 C 3464.5939,1269.8383 3469.724,1282.4014 3469.724,1298.1069 C 3469.724,1325.3286 3455.4852,1336.8447 3440.7221,1336.8447 L 3400.8311,1336.8447 L 3400.8311,1204.9241 z M 3418.9441,1258.3205 L 3437.266,1258.3205 C 3443.5493,1258.3205 3448.2596,1254.1328 3448.2596,1242.6149 C 3448.2596,1230.0519 3442.2916,1227.958 3435.801,1227.958 L 3418.9441,1227.958 L 3418.9441,1258.3205 z M 3418.9441,1313.8107 L 3438.3129,1313.8107 C 3445.4341,1313.8107 3451.6111,1310.6699 3451.6111,1297.06 C 3451.6111,1283.4483 3446.2702,1278.2137 3438.6282,1278.2137 L 3418.9441,1278.2137 L 3418.9441,1313.8107"
           style="font-size:3.15269995px;letter-spacing:-0.063054;word-spacing:0;fill:black;fill-rule:nonzero;stroke:none;stroke-width:0.091;stroke-linecap:butt;stroke-linejoin:miter;stroke-miterlimit:4;stroke-dasharray:none;font-family:fnt0, &quot;Futura&quot;, Arial" />
        <path
           id="path1947"
           class="ps013 ps139 ps20"
           d="M 3488.1505,1336.8447 L 3488.1505,1204.9241"
           style="font-size:3.15269995px;letter-spacing:-0.063054;word-spacing:0;fill:black;stroke:#231e1f;stroke-width:16.35414124;stroke-linecap:butt;stroke-linejoin:miter;stroke-miterlimit:4;stroke-dasharray:none;font-family:fnt0, &quot;Futura&quot;, Arial" />
        <path
           id="path1951"
           class="ps07 ps138 ps20"
           d="M 3566.99,1336.8447 L 3551.389,1336.8447 L 3551.389,1323.2347 L 3551.0755,1323.2347 C 3546.8878,1333.7039 3539.7684,1338.9403 3532.858,1338.9403 C 3515.4784,1338.9403 3511.08,1323.2347 3511.08,1300.2007 L 3511.08,1241.568 L 3527.5189,1241.568 L 3527.5189,1294.9662 C 3527.5189,1310.6699 3530.3444,1319.0471 3537.9881,1319.0471 C 3546.7833,1319.0471 3550.6574,1310.6699 3550.6574,1291.8236 L 3550.6574,1241.568 L 3566.99,1241.568 L 3566.99,1336.8447"
           style="font-size:3.15269995px;letter-spacing:-0.063054;word-spacing:0;fill:black;fill-rule:nonzero;stroke:none;stroke-width:0.062;stroke-linecap:butt;stroke-linejoin:miter;stroke-miterlimit:4;stroke-dasharray:none;font-family:fnt0, &quot;Futura&quot;, Arial" />
        <path
           id="path1955"
           class="ps07 ps138 ps20"
           d="M 3595.992,1294.9662 C 3596.5163,1311.7169 3601.5419,1319.0471 3610.6506,1319.0471 C 3617.2457,1319.0471 3622.4803,1312.7638 3623.5289,1307.5292 L 3637.8723,1307.5292 C 3633.2648,1329.5162 3623.5289,1338.9403 3610.0218,1338.9403 C 3591.28,1338.9403 3579.6593,1319.0471 3579.6593,1288.6829 C 3579.6593,1260.4143 3592.0133,1239.4742 3610.0218,1239.4742 C 3630.333,1239.4742 3640.0706,1265.6489 3638.9192,1294.9662 L 3595.992,1294.9662 z M 3622.5865,1279.2606 C 3621.1198,1265.6489 3617.561,1258.3205 3609.6037,1258.3205 C 3599.2373,1258.3205 3596.201,1271.9322 3595.992,1279.2606 L 3622.5865,1279.2606"
           style="font-size:3.15269995px;letter-spacing:-0.063054;word-spacing:0;fill:black;fill-rule:nonzero;stroke:none;stroke-width:0.062;stroke-linecap:butt;stroke-linejoin:miter;stroke-miterlimit:4;stroke-dasharray:none;font-family:fnt0, &quot;Futura&quot;, Arial" />
        <path
           id="path1959"
           class="ps07 ps138 ps20"
           d="M 3675.6694,1241.568 L 3687.6053,1241.568 L 3687.6053,1259.3674 L 3675.6694,1259.3674 L 3675.6694,1306.4823 C 3675.6694,1314.8576 3677.0299,1316.9532 3682.5797,1316.9532 C 3684.2538,1316.9532 3685.825,1316.9532 3687.6053,1315.9063 L 3687.6053,1336.8447 C 3684.8826,1337.8934 3681.3221,1337.8934 3678.0768,1337.8934 C 3668.0256,1337.8934 3659.2305,1333.7039 3659.2305,1314.8576 L 3659.2305,1259.3674 L 3649.3884,1259.3674 L 3649.3884,1241.568 L 3659.2305,1241.568 L 3659.2305,1213.2994 L 3675.6694,1213.2994 L 3675.6694,1241.568"
           style="font-size:3.15269995px;letter-spacing:-0.063054;word-spacing:0;fill:black;fill-rule:nonzero;stroke:none;stroke-width:0.062;stroke-linecap:butt;stroke-linejoin:miter;stroke-miterlimit:4;stroke-dasharray:none;font-family:fnt0, &quot;Futura&quot;, Arial" />
        <path
           id="path1963"
           class="ps07 ps138 ps20"
           d="M 3727.4945,1239.4742 C 3746.2363,1239.4742 3758.2768,1258.3205 3758.2768,1288.6829 C 3758.2768,1319.0471 3746.2363,1338.9403 3727.4945,1338.9403 C 3708.859,1338.9403 3696.714,1319.0471 3696.714,1288.6829 C 3696.714,1258.3205 3708.859,1239.4742 3727.4945,1239.4742 z M 3727.4945,1319.0471 C 3738.5926,1319.0471 3741.9441,1304.3884 3741.9441,1288.6829 C 3741.9441,1274.026 3738.5926,1258.3205 3727.4945,1258.3205 C 3716.3965,1258.3205 3713.0467,1274.026 3713.0467,1288.6829 C 3713.0467,1304.3884 3716.3965,1319.0471 3727.4945,1319.0471"
           style="font-size:3.15269995px;letter-spacing:-0.063054;word-spacing:0;fill:black;fill-rule:nonzero;stroke:none;stroke-width:0.062;stroke-linecap:butt;stroke-linejoin:miter;stroke-miterlimit:4;stroke-dasharray:none;font-family:fnt0, &quot;Futura&quot;, Arial" />
        <path
           id="path1967"
           class="ps07 ps138 ps20"
           d="M 3797.2253,1239.4742 C 3815.9671,1239.4742 3828.0076,1258.3205 3828.0076,1288.6829 C 3828.0076,1319.0471 3815.9671,1338.9403 3797.2253,1338.9403 C 3778.4835,1338.9403 3766.4431,1319.0471 3766.4431,1288.6829 C 3766.4431,1258.3205 3778.4835,1239.4742 3797.2253,1239.4742 z M 3797.2253,1319.0471 C 3808.3234,1319.0471 3811.6732,1304.3884 3811.6732,1288.6829 C 3811.6732,1274.026 3808.3234,1258.3205 3797.2253,1258.3205 C 3786.1273,1258.3205 3782.7775,1274.026 3782.7775,1288.6829 C 3782.7775,1304.3884 3786.1273,1319.0471 3797.2253,1319.0471"
           style="font-size:3.15269995px;letter-spacing:-0.063054;word-spacing:0;fill:black;fill-rule:nonzero;stroke:none;stroke-width:0.062;stroke-linecap:butt;stroke-linejoin:miter;stroke-miterlimit:4;stroke-dasharray:none;font-family:fnt0, &quot;Futura&quot;, Arial" />
        <path
           id="path1971"
           class="ps07 ps138 ps20"
           d="M 3861.9305,1241.568 L 3873.8665,1241.568 L 3873.8665,1259.3674 L 3861.9305,1259.3674 L 3861.9305,1306.4823 C 3861.9305,1314.8576 3863.291,1316.9532 3868.7347,1316.9532 C 3870.5149,1316.9532 3872.0862,1316.9532 3873.8665,1315.9063 L 3873.8665,1336.8447 C 3871.0393,1337.8934 3867.4787,1337.8934 3864.3379,1337.8934 C 3854.2868,1337.8934 3845.4916,1333.7039 3845.4916,1314.8576 L 3845.4916,1259.3674 L 3835.6495,1259.3674 L 3835.6495,1241.568 L 3845.4916,1241.568 L 3845.4916,1213.2994 L 3861.9305,1213.2994 L 3861.9305,1241.568"
           style="font-size:3.15269995px;letter-spacing:-0.063054;word-spacing:0;fill:black;fill-rule:nonzero;stroke:none;stroke-width:0.062;stroke-linecap:butt;stroke-linejoin:miter;stroke-miterlimit:4;stroke-dasharray:none;font-family:fnt0, &quot;Futura&quot;, Arial" />
        <path
           id="path1975"
           class="ps07 ps138 ps20"
           d="M 3889.8856,1204.9241 L 3906.2182,1204.9241 L 3906.2182,1255.1797 L 3906.5318,1255.1797 C 3910.7195,1243.6618 3917.8406,1239.4742 3923.9131,1239.4742 C 3941.2927,1239.4742 3945.6894,1254.1328 3945.6894,1278.2137 L 3945.6894,1336.8447 L 3929.3567,1336.8447 L 3929.3567,1282.4014 C 3929.3567,1266.6958 3926.425,1259.3674 3918.8875,1259.3674 C 3909.9878,1259.3674 3906.2182,1267.7427 3906.2182,1286.589 L 3906.2182,1336.8447 L 3889.8856,1336.8447 L 3889.8856,1204.9241"
           style="font-size:3.15269995px;letter-spacing:-0.063054;word-spacing:0;fill:black;fill-rule:nonzero;stroke:none;stroke-width:0.062;stroke-linecap:butt;stroke-linejoin:miter;stroke-miterlimit:4;stroke-dasharray:none;font-family:fnt0, &quot;Futura&quot;, Arial" />
        <path
           id="path1979"
           class="ps07 ps138 ps20"
           d="M 3971.237,1219.5809 C 3971.237,1223.7686 3969.8765,1226.9111 3967.3629,1229.005 C 3964.7447,1232.1457 3961.7085,1233.1926 3958.0451,1233.1926 C 3954.38,1233.1926 3951.3438,1232.1457 3948.7256,1229.005 C 3946.1092,1226.9111 3944.8532,1223.7686 3944.8532,1219.5809 C 3944.8532,1216.4402 3946.1092,1213.2994 3948.7256,1210.1587 C 3951.3438,1208.0648 3954.38,1207.0179 3958.0451,1207.0179 C 3961.7085,1207.0179 3964.7447,1208.0648 3967.3629,1210.1587 C 3969.8765,1213.2994 3971.237,1216.4402 3971.237,1219.5809 z M 3968.0962,1219.5809 C 3968.0962,1217.4871 3967.0493,1214.3463 3965.1645,1212.2525 C 3963.1752,1210.1587 3960.7661,1209.1117 3958.0451,1209.1117 C 3955.2179,1209.1117 3952.915,1210.1587 3950.9257,1212.2525 C 3948.9364,1214.3463 3947.994,1217.4871 3947.994,1219.5809 C 3947.994,1222.7217 3948.9364,1224.8173 3950.9257,1226.9111 C 3952.915,1229.005 3955.2179,1230.0519 3958.0451,1230.0519 C 3960.7661,1230.0519 3963.1752,1229.005 3965.1645,1226.9111 C 3967.0493,1224.8173 3968.0962,1222.7217 3968.0962,1219.5809 z M 3959.7191,1226.9111 C 3959.7191,1225.8642 3959.7191,1224.8173 3959.7191,1223.7686 C 3959.7191,1223.7686 3959.5101,1222.7217 3959.092,1221.6748 C 3958.7767,1220.6279 3958.2541,1220.6279 3957.6253,1220.6279 C 3957.4163,1220.6279 3957.1027,1220.6279 3956.6829,1220.6279 C 3956.6829,1222.7217 3956.6829,1224.8173 3956.6829,1226.9111 C 3956.1603,1226.9111 3955.636,1226.9111 3955.0089,1226.9111 C 3954.2755,1226.9111 3953.7512,1226.9111 3953.2286,1226.9111 L 3953.2286,1212.2525 C 3956.1603,1212.2525 3957.9406,1212.2525 3958.7767,1212.2525 C 3960.2435,1212.2525 3961.2904,1213.2994 3962.0238,1213.2994 C 3962.7554,1214.3463 3963.1752,1214.3463 3963.1752,1215.3933 C 3963.1752,1215.3933 3963.1752,1216.4402 3963.1752,1216.4402 C 3963.1752,1216.4402 3963.1752,1217.4871 3963.1752,1217.4871 C 3963.1752,1217.4871 3962.9662,1218.534 3962.5463,1218.534 C 3962.1283,1219.5809 3961.6039,1219.5809 3960.8723,1219.5809 C 3961.9192,1220.6279 3962.5463,1220.6279 3962.9662,1221.6748 C 3963.2797,1222.7217 3963.4887,1223.7686 3963.4887,1224.8173 C 3963.4887,1224.8173 3963.4887,1225.8642 3963.4887,1226.9111 L 3959.7191,1226.9111 z M 3960.0344,1217.4871 C 3960.0344,1217.4871 3960.0344,1217.4871 3960.0344,1216.4402 C 3960.0344,1216.4402 3960.0344,1216.4402 3960.0344,1216.4402 C 3960.0344,1216.4402 3959.9299,1215.3933 3959.6146,1215.3933 C 3959.4056,1215.3933 3959.092,1215.3933 3958.6722,1215.3933 C 3958.5677,1215.3933 3958.2541,1215.3933 3957.7298,1215.3933 C 3957.2072,1215.3933 3956.8937,1215.3933 3956.6829,1215.3933 L 3956.6829,1218.534 C 3957.6253,1218.534 3958.3587,1218.534 3958.6722,1218.534 C 3959.092,1218.534 3959.5101,1218.534 3959.7191,1218.534 C 3959.9299,1218.534 3960.0344,1217.4871 3960.0344,1217.4871"
           style="font-size:3.15269995px;letter-spacing:-0.063054;word-spacing:0;fill:black;fill-rule:nonzero;stroke:none;stroke-width:0.062;stroke-linecap:butt;stroke-linejoin:miter;stroke-miterlimit:4;stroke-dasharray:none;font-family:fnt0, &quot;Futura&quot;, Arial" />
      </g>
    </g>
  </g>
</svg>
